<?xml version="1.0" encoding="UTF-8" standalone="no"?>
<!DOCTYPE svg PUBLIC "-//W3C//DTD SVG 1.1//EN" "http://www.w3.org/Graphics/SVG/1.1/DTD/svg11.dtd">
<svg width="100%" height="100%" viewBox="0 0 544 545" version="1.1" xmlns="http://www.w3.org/2000/svg" xmlns:xlink="http://www.w3.org/1999/xlink" xml:space="preserve" xmlns:serif="http://www.serif.com/" style="fill-rule:evenodd;clip-rule:evenodd;stroke-linejoin:round;stroke-miterlimit:2;">
    <g transform="matrix(1,0,0,1,-328,-128)">
        <path d="M757.741,369.739C671.783,318.69 529.998,313.997 447.94,338.902C434.76,342.899 420.827,335.462 416.836,322.284C412.843,309.099 420.273,295.173 433.458,291.168C527.658,262.576 684.243,268.097 783.2,326.839C795.055,333.877 798.938,349.183 791.915,361.014C784.884,372.867 769.563,376.777 757.739,369.739M754.925,445.346C748.895,455.133 736.099,458.202 726.326,452.193C654.667,408.144 545.388,395.381 460.605,421.117C449.612,424.437 437.998,418.241 434.659,407.265C431.367,396.352 437.619,384.66 448.523,381.338C545.374,351.946 665.777,366.18 748.086,416.763C757.858,422.781 760.934,435.582 754.925,445.346M722.295,517.958C719.285,522.903 713.898,525.93 708.109,525.93C705.05,525.93 702.051,525.085 699.442,523.489C636.822,485.217 558.003,476.574 465.179,497.777C463.964,498.055 462.722,498.195 461.476,498.195C453.754,498.195 447.001,492.81 445.282,485.282C445.002,484.062 444.861,482.815 444.861,481.564C444.861,473.841 450.25,467.09 457.78,465.378C559.359,442.16 646.492,452.152 716.78,495.102C721.717,498.118 724.738,503.502 724.738,509.287C724.738,512.347 723.893,515.348 722.297,517.958M599.995,133.333C452.726,133.333 333.333,252.722 333.333,399.995C333.333,547.283 452.726,666.667 599.998,666.667C747.276,666.667 866.667,547.283 866.667,399.995C866.667,252.724 747.278,133.333 599.998,133.333" style="fill:rgb(25,20,20);fill-rule:nonzero;"/>
    </g>
</svg>
